<mxfile compressed="false" host="Electron" agent="Mozilla/5.0 (Windows NT 10.0; Win64; x64) AppleWebKit/537.36 (KHTML, like Gecko) draw.io/26.2.15 Chrome/134.0.6998.205 Electron/35.2.1 Safari/537.36" version="26.2.15">
  <diagram id="f2628d75-8341-4b02-b8b6-70fd916750e4" name="Jira">
    <mxGraphModel dx="3346" dy="1921" grid="1" gridSize="10" guides="1" tooltips="1" connect="1" arrows="1" fold="1" page="1" pageScale="1" pageWidth="850" pageHeight="1100" math="0" shadow="0">
      <root>
        <mxCell id="0" />
        <mxCell id="1" parent="0" />
        <object label="Version" link="references/eClassifiers/Version/index.html" id="58316bc6-63c2-43a5-a0bd-eacaf49c2dc1">
          <mxCell parent="1" vertex="1">
            <mxGeometry x="991.9056064176172" y="1022.8862083546123" width="120" height="30" as="geometry" />
          </mxCell>
        </object>
        <object label="UserReference" link="references/eClassifiers/UserReference/index.html" id="e500880d-a321-4b03-8f36-3e3b0cea0501">
          <mxCell parent="1" vertex="1">
            <mxGeometry x="1430.0020126974896" y="869.9936108726898" width="120" height="30" as="geometry" />
          </mxCell>
        </object>
        <object label="Attachment" link="references/eClassifiers/Attachment/index.html" id="204c40d3-d378-4815-9a5f-e984a5c2085c">
          <mxCell parent="1" vertex="1">
            <mxGeometry x="1169.9977123228532" y="260.00477407111276" width="120" height="30" as="geometry" />
          </mxCell>
        </object>
        <object label="BasicProject" link="references/eClassifiers/BasicProject/index.html" id="94e793c8-9347-4b83-b940-283ab50a7fae">
          <mxCell parent="1" vertex="1">
            <mxGeometry x="1170.0001488474977" y="848.1855920041914" width="120" height="30" as="geometry" />
          </mxCell>
        </object>
        <object label="AdressableNamedEntity" link="references/eClassifiers/AdressableNamedEntity/index.html" id="5a4dca6b-e79f-47f9-872e-8ed4108fc764">
          <mxCell parent="1" vertex="1">
            <mxGeometry x="554.13" y="330" width="143.24" height="30" as="geometry" />
          </mxCell>
        </object>
        <mxCell id="a6e2c64b-9d5e-4df7-8918-7fbf07978539" style="edgeStyle=orthogonalEdgeStyle;rounded=0;orthogonalLoop=1;jettySize=auto;html=1;endArrow=block;endFill=0" parent="1" source="58316bc6-63c2-43a5-a0bd-eacaf49c2dc1" target="5a4dca6b-e79f-47f9-872e-8ed4108fc764" edge="1">
          <mxGeometry relative="1" as="geometry" />
        </mxCell>
        <object label="Project" link="references/eClassifiers/Project/index.html" id="46dae3c3-20b9-4e18-a771-b41b9f741ee4">
          <mxCell parent="1" vertex="1">
            <mxGeometry x="1214.9976662626354" y="1029.9964785771783" width="120" height="30" as="geometry" />
          </mxCell>
        </object>
        <mxCell id="ac7402c5-74e8-4491-bf3a-3c26517bc984" style="edgeStyle=orthogonalEdgeStyle;rounded=0;orthogonalLoop=1;jettySize=auto;html=1;endArrow=block;endFill=0" parent="1" source="46dae3c3-20b9-4e18-a771-b41b9f741ee4" target="94e793c8-9347-4b83-b940-283ab50a7fae" edge="1">
          <mxGeometry relative="1" as="geometry" />
        </mxCell>
        <mxCell id="8b64241b-90d1-4298-80b4-78500a5f7fff" value="versions" style="rounded=0;orthogonalLoop=1;jettySize=1;html=1;startArrow=diamondThin;startFill=1" parent="1" source="46dae3c3-20b9-4e18-a771-b41b9f741ee4" target="58316bc6-63c2-43a5-a0bd-eacaf49c2dc1" edge="1">
          <mxGeometry relative="1" as="geometry" />
        </mxCell>
        <object label="Group" link="references/eClassifiers/Group/index.html" id="b0cbb9b0-f553-4289-8bf5-059637a2cac3">
          <mxCell parent="1" vertex="1">
            <mxGeometry x="1829.996298646598" y="904.8642914787108" width="120" height="30" as="geometry" />
          </mxCell>
        </object>
        <mxCell id="5982089c-19c7-44bf-9e83-ae5f745b7d8a" style="edgeStyle=orthogonalEdgeStyle;rounded=0;orthogonalLoop=1;jettySize=auto;html=1;endArrow=block;endFill=0" parent="1" source="b0cbb9b0-f553-4289-8bf5-059637a2cac3" target="5a4dca6b-e79f-47f9-872e-8ed4108fc764" edge="1">
          <mxGeometry relative="1" as="geometry" />
        </mxCell>
        <object label="Status" link="references/eClassifiers/Status/index.html" id="06c1c33a-e992-4390-a503-d95d9cc7042f">
          <mxCell parent="1" vertex="1">
            <mxGeometry x="803.2418402149683" y="706.7646737349351" width="120" height="30" as="geometry" />
          </mxCell>
        </object>
        <object label="AdressableNamedIdentifiableEntity" link="references/eClassifiers/AdressableNamedIdentifiableEntity/index.html" id="35a49d7a-69f1-4bbd-825a-1f5be5a17f34">
          <mxCell parent="1" vertex="1">
            <mxGeometry x="520.75" y="410" width="210" height="30" as="geometry" />
          </mxCell>
        </object>
        <mxCell id="fdef9f22-83e0-4fd6-861a-37be89085d40" style="edgeStyle=orthogonalEdgeStyle;rounded=0;orthogonalLoop=1;jettySize=auto;html=1;endArrow=block;endFill=0" parent="1" source="35a49d7a-69f1-4bbd-825a-1f5be5a17f34" target="5a4dca6b-e79f-47f9-872e-8ed4108fc764" edge="1">
          <mxGeometry relative="1" as="geometry" />
        </mxCell>
        <mxCell id="4130d67a-02c7-43c8-b4e5-bf7a047644d8" style="edgeStyle=orthogonalEdgeStyle;rounded=0;orthogonalLoop=1;jettySize=auto;html=1;endArrow=block;endFill=0" parent="1" source="06c1c33a-e992-4390-a503-d95d9cc7042f" target="35a49d7a-69f1-4bbd-825a-1f5be5a17f34" edge="1">
          <mxGeometry relative="1" as="geometry" />
        </mxCell>
        <mxCell id="1b290a80-1470-40d4-8925-c0a98807a7d9" style="edgeStyle=orthogonalEdgeStyle;rounded=0;orthogonalLoop=1;jettySize=auto;html=1;endArrow=block;endFill=0" parent="1" source="94e793c8-9347-4b83-b940-283ab50a7fae" target="35a49d7a-69f1-4bbd-825a-1f5be5a17f34" edge="1">
          <mxGeometry relative="1" as="geometry" />
        </mxCell>
        <object label="BasicWatchers" link="references/eClassifiers/BasicWatchers/index.html" id="bd34a6dd-be01-4615-a138-f2748f9fdd7f">
          <mxCell parent="1" vertex="1">
            <mxGeometry x="1215.0009509865897" y="450.00057381394186" width="120" height="30" as="geometry" />
          </mxCell>
        </object>
        <object label="BasicIssue" link="references/eClassifiers/BasicIssue/index.html" id="2388a42d-6c62-40ba-9dbe-8229680f8481">
          <mxCell parent="1" vertex="1">
            <mxGeometry x="1389.9951206886574" y="968.9192400441813" width="120" height="30" as="geometry" />
          </mxCell>
        </object>
        <mxCell id="db693450-a4f2-4d3c-87d2-4780aac04194" value="issues" style="rounded=0;orthogonalLoop=1;jettySize=1;html=1;startArrow=diamondThin;startFill=1" parent="1" source="46dae3c3-20b9-4e18-a771-b41b9f741ee4" target="2388a42d-6c62-40ba-9dbe-8229680f8481" edge="1">
          <mxGeometry relative="1" as="geometry" />
        </mxCell>
        <object label="Issue" link="references/eClassifiers/Issue/index.html" id="d3357369-3d58-493a-bbab-b021bac1352e">
          <mxCell parent="1" vertex="1">
            <mxGeometry x="1121.0883398602098" y="632.2745257042038" width="120" height="30" as="geometry" />
          </mxCell>
        </object>
        <mxCell id="bbc76904-bf16-45e9-a780-f41764c2970e" value="status" style="rounded=0;orthogonalLoop=1;jettySize=1;html=1" parent="1" source="d3357369-3d58-493a-bbab-b021bac1352e" target="06c1c33a-e992-4390-a503-d95d9cc7042f" edge="1">
          <mxGeometry relative="1" as="geometry" />
        </mxCell>
        <mxCell id="c7437ea5-7571-422d-9638-75d57797103a" value="project" style="rounded=0;orthogonalLoop=1;jettySize=1;html=1" parent="1" source="d3357369-3d58-493a-bbab-b021bac1352e" target="94e793c8-9347-4b83-b940-283ab50a7fae" edge="1">
          <mxGeometry relative="1" as="geometry" />
        </mxCell>
        <mxCell id="6cbec925-2261-428d-a6f7-3105b26b6021" value="affectedVersions" style="rounded=0;orthogonalLoop=1;jettySize=1;html=1;startArrow=diamondThin;startFill=1" parent="1" source="d3357369-3d58-493a-bbab-b021bac1352e" target="58316bc6-63c2-43a5-a0bd-eacaf49c2dc1" edge="1">
          <mxGeometry relative="1" as="geometry" />
        </mxCell>
        <mxCell id="7166d884-a6d8-4345-b0c3-b92c77d9defd" value="fixVersions" style="rounded=0;orthogonalLoop=1;jettySize=1;html=1;startArrow=diamondThin;startFill=1" parent="1" source="d3357369-3d58-493a-bbab-b021bac1352e" target="58316bc6-63c2-43a5-a0bd-eacaf49c2dc1" edge="1">
          <mxGeometry relative="1" as="geometry" />
        </mxCell>
        <mxCell id="f1a4b7b1-de69-4a64-8e24-01b1dcaa0bfe" value="attachments" style="rounded=0;orthogonalLoop=1;jettySize=1;html=1;startArrow=diamondThin;startFill=1" parent="1" source="d3357369-3d58-493a-bbab-b021bac1352e" target="204c40d3-d378-4815-9a5f-e984a5c2085c" edge="1">
          <mxGeometry relative="1" as="geometry" />
        </mxCell>
        <mxCell id="3ec17487-116d-44eb-a611-6f5f94fffad5" style="edgeStyle=orthogonalEdgeStyle;rounded=0;orthogonalLoop=1;jettySize=auto;html=1;endArrow=block;endFill=0" parent="1" source="d3357369-3d58-493a-bbab-b021bac1352e" target="2388a42d-6c62-40ba-9dbe-8229680f8481" edge="1">
          <mxGeometry relative="1" as="geometry" />
        </mxCell>
        <mxCell id="6a728763-33a5-498b-a105-06cc2fb97e71" value="watchers" style="rounded=0;orthogonalLoop=1;jettySize=1;html=1" parent="1" source="d3357369-3d58-493a-bbab-b021bac1352e" target="bd34a6dd-be01-4615-a138-f2748f9fdd7f" edge="1">
          <mxGeometry relative="1" as="geometry" />
        </mxCell>
        <object label="AssigneeType" link="references/eClassifiers/AssigneeType/index.html" id="6780c6a4-6a95-4389-886a-acaa60b44629">
          <mxCell parent="1" vertex="1">
            <mxGeometry x="1520.05" y="971.01" width="120" height="30" as="geometry" />
          </mxCell>
        </object>
        <object label="Comment" link="references/eClassifiers/Comment/index.html" id="bf513645-bc84-4a32-8962-55fdaf1c9531">
          <mxCell parent="1" vertex="1">
            <mxGeometry x="1554.7593282806465" y="436.5272530659217" width="120" height="30" as="geometry" />
          </mxCell>
        </object>
        <mxCell id="e68be4a2-ad0d-4f26-9eb0-a32cb0df7096" value="comments" style="rounded=0;orthogonalLoop=1;jettySize=1;html=1;startArrow=diamondThin;startFill=1" parent="1" source="d3357369-3d58-493a-bbab-b021bac1352e" target="bf513645-bc84-4a32-8962-55fdaf1c9531" edge="1">
          <mxGeometry relative="1" as="geometry" />
        </mxCell>
        <object label="Component" link="references/eClassifiers/Component/index.html" id="70c8e6b3-8a09-471d-b09e-3dd6e1f4d8f8">
          <mxCell parent="1" vertex="1">
            <mxGeometry x="1760.0005749830211" y="744.2966675777332" width="120" height="30" as="geometry" />
          </mxCell>
        </object>
        <object label="Resolution" link="references/eClassifiers/Resolution/index.html" id="256f8a61-e4cb-4ac4-828e-1fd2e99db27b">
          <mxCell parent="1" vertex="1">
            <mxGeometry x="675.7091933635867" y="765.527472933691" width="120" height="30" as="geometry" />
          </mxCell>
        </object>
        <mxCell id="30864d39-f53f-4ff3-adb3-d67d5863c1cf" style="edgeStyle=orthogonalEdgeStyle;rounded=0;orthogonalLoop=1;jettySize=auto;html=1;endArrow=block;endFill=0" parent="1" source="256f8a61-e4cb-4ac4-828e-1fd2e99db27b" target="35a49d7a-69f1-4bbd-825a-1f5be5a17f34" edge="1">
          <mxGeometry relative="1" as="geometry" />
        </mxCell>
        <mxCell id="b93670e4-9105-47dd-a066-9cd542458733" value="resolution" style="rounded=0;orthogonalLoop=1;jettySize=1;html=1" parent="1" source="d3357369-3d58-493a-bbab-b021bac1352e" target="256f8a61-e4cb-4ac4-828e-1fd2e99db27b" edge="1">
          <mxGeometry relative="1" as="geometry" />
        </mxCell>
        <object label="IssueReference" link="references/eClassifiers/IssueReference/index.html" id="7d08fe76-f861-4253-97a6-83045d075300">
          <mxCell parent="1" vertex="1">
            <mxGeometry x="1389.9919852715893" y="1052.8873317124987" width="120" height="30" as="geometry" />
          </mxCell>
        </object>
        <mxCell id="82cda101-c50a-4e40-bd62-9f8e343ce677" style="edgeStyle=orthogonalEdgeStyle;rounded=0;orthogonalLoop=1;jettySize=auto;html=1;endArrow=block;endFill=0" parent="1" source="7d08fe76-f861-4253-97a6-83045d075300" target="2388a42d-6c62-40ba-9dbe-8229680f8481" edge="1">
          <mxGeometry relative="1" as="geometry" />
        </mxCell>
        <object label="Actor" link="references/eClassifiers/Actor/index.html" id="29e748d2-127b-461f-84f8-18eb52ee1a63">
          <mxCell parent="1" vertex="1">
            <mxGeometry x="1716.6378560014298" y="818.1869242928078" width="120" height="30" as="geometry" />
          </mxCell>
        </object>
        <mxCell id="3e7c0f9a-df59-4f4d-8f20-ed02c1c3aacf" style="edgeStyle=orthogonalEdgeStyle;rounded=0;orthogonalLoop=1;jettySize=auto;html=1;endArrow=block;endFill=0" parent="1" source="b0cbb9b0-f553-4289-8bf5-059637a2cac3" target="29e748d2-127b-461f-84f8-18eb52ee1a63" edge="1">
          <mxGeometry relative="1" as="geometry">
            <Array as="points">
              <mxPoint x="1880" y="883.85" />
              <mxPoint x="1777" y="883.85" />
            </Array>
          </mxGeometry>
        </mxCell>
        <object label="IssueType" link="references/eClassifiers/IssueType/index.html" id="d6c39a25-1cd8-453e-aa7c-81c1b86080bd">
          <mxCell parent="1" vertex="1">
            <mxGeometry x="952.0558094981076" y="715.5178437185581" width="120" height="30" as="geometry" />
          </mxCell>
        </object>
        <mxCell id="68848e0f-d682-4bb1-b681-55cff9a18cf0" style="edgeStyle=orthogonalEdgeStyle;rounded=0;orthogonalLoop=1;jettySize=auto;html=1;endArrow=block;endFill=0" parent="1" source="d6c39a25-1cd8-453e-aa7c-81c1b86080bd" target="35a49d7a-69f1-4bbd-825a-1f5be5a17f34" edge="1">
          <mxGeometry relative="1" as="geometry" />
        </mxCell>
        <mxCell id="10f12b3e-2aa3-442d-bdaf-0271eb4e8f9d" value="issueType" style="rounded=0;orthogonalLoop=1;jettySize=1;html=1" parent="1" source="d3357369-3d58-493a-bbab-b021bac1352e" target="d6c39a25-1cd8-453e-aa7c-81c1b86080bd" edge="1">
          <mxGeometry relative="1" as="geometry" />
        </mxCell>
        <mxCell id="3e46930c-b36d-448e-84e4-e3e474c8475c" value="issueTypes" style="rounded=0;orthogonalLoop=1;jettySize=1;html=1;startArrow=diamondThin;startFill=1" parent="1" source="46dae3c3-20b9-4e18-a771-b41b9f741ee4" target="d6c39a25-1cd8-453e-aa7c-81c1b86080bd" edge="1">
          <mxGeometry relative="1" as="geometry" />
        </mxCell>
        <object label="IssueField" link="references/eClassifiers/IssueField/index.html" id="21364e90-d412-4394-8a49-de275ca6222c">
          <mxCell parent="1" vertex="1">
            <mxGeometry x="930.0024643371719" y="809.9975353672862" width="120" height="30" as="geometry" />
          </mxCell>
        </object>
        <mxCell id="944b3529-4772-4799-909c-3e7ce4f89d09" value="issueFields" style="rounded=0;orthogonalLoop=1;jettySize=1;html=1;startArrow=diamondThin;startFill=1" parent="1" source="d3357369-3d58-493a-bbab-b021bac1352e" target="21364e90-d412-4394-8a49-de275ca6222c" edge="1">
          <mxGeometry relative="1" as="geometry" />
        </mxCell>
        <object label="IssueLink" link="references/eClassifiers/IssueLink/index.html" id="d6382155-fa4d-423a-a217-34e4560c4e2e">
          <mxCell parent="1" vertex="1">
            <mxGeometry x="912.9749678627708" y="260.0046756549491" width="120" height="30" as="geometry" />
          </mxCell>
        </object>
        <mxCell id="07a66561-0d8a-4546-ad6b-4f323d787c3b" value="issueLinks" style="rounded=0;orthogonalLoop=1;jettySize=1;html=1;startArrow=diamondThin;startFill=1" parent="1" source="d3357369-3d58-493a-bbab-b021bac1352e" target="d6382155-fa4d-423a-a217-34e4560c4e2e" edge="1">
          <mxGeometry relative="1" as="geometry" />
        </mxCell>
        <object label="ComponentReference" link="references/eClassifiers/ComponentReference/index.html" id="010b1c63-3bcd-4e59-a265-b3c5d166326b">
          <mxCell parent="1" vertex="1">
            <mxGeometry x="1920" y="745.5199999999999" width="126.6" height="30" as="geometry" />
          </mxCell>
        </object>
        <object label="BasicComponent" link="references/eClassifiers/BasicComponent/index.html" id="ba0e2341-4bb7-4398-b3a3-d45d3179e94f">
          <mxCell parent="1" vertex="1">
            <mxGeometry x="1829.9996473500642" y="649.9960883261249" width="120" height="30" as="geometry" />
          </mxCell>
        </object>
        <mxCell id="9bc00101-0d27-4da8-ad7f-08c993d065e6" style="edgeStyle=orthogonalEdgeStyle;rounded=0;orthogonalLoop=1;jettySize=auto;html=1;endArrow=block;endFill=0" parent="1" source="ba0e2341-4bb7-4398-b3a3-d45d3179e94f" target="35a49d7a-69f1-4bbd-825a-1f5be5a17f34" edge="1">
          <mxGeometry relative="1" as="geometry" />
        </mxCell>
        <mxCell id="83724715-33ea-45ea-b050-9cb4296ba330" style="edgeStyle=orthogonalEdgeStyle;rounded=0;orthogonalLoop=1;jettySize=auto;html=1;endArrow=block;endFill=0" parent="1" source="010b1c63-3bcd-4e59-a265-b3c5d166326b" target="ba0e2341-4bb7-4398-b3a3-d45d3179e94f" edge="1">
          <mxGeometry relative="1" as="geometry" />
        </mxCell>
        <mxCell id="3998ec43-3696-4683-a978-7f0ab0d0b70e" style="edgeStyle=orthogonalEdgeStyle;rounded=0;orthogonalLoop=1;jettySize=auto;html=1;endArrow=block;endFill=0" parent="1" source="70c8e6b3-8a09-471d-b09e-3dd6e1f4d8f8" target="ba0e2341-4bb7-4398-b3a3-d45d3179e94f" edge="1">
          <mxGeometry relative="1" as="geometry" />
        </mxCell>
        <mxCell id="1d30712b-d347-449f-abce-fbb2768e1569" value="components" style="rounded=0;orthogonalLoop=1;jettySize=1;html=1;startArrow=diamondThin;startFill=1" parent="1" source="d3357369-3d58-493a-bbab-b021bac1352e" target="ba0e2341-4bb7-4398-b3a3-d45d3179e94f" edge="1">
          <mxGeometry relative="1" as="geometry" />
        </mxCell>
        <mxCell id="27f36313-080c-4feb-877c-be08db331935" value="components" style="rounded=0;orthogonalLoop=1;jettySize=1;html=1;startArrow=diamondThin;startFill=1" parent="1" source="46dae3c3-20b9-4e18-a771-b41b9f741ee4" target="ba0e2341-4bb7-4398-b3a3-d45d3179e94f" edge="1">
          <mxGeometry relative="1" as="geometry" />
        </mxCell>
        <object label="BasicUser" link="references/eClassifiers/BasicUser/index.html" id="ac9137da-f9d0-4320-90c2-89eddbb57aee">
          <mxCell parent="1" vertex="1">
            <mxGeometry x="1488.5581684721926" y="744.300419002499" width="120" height="30" as="geometry" />
          </mxCell>
        </object>
        <mxCell id="75258ff0-d183-42e1-8dd4-10bd9c890b04" style="edgeStyle=orthogonalEdgeStyle;rounded=0;orthogonalLoop=1;jettySize=auto;html=1;endArrow=block;endFill=0" parent="1" source="ac9137da-f9d0-4320-90c2-89eddbb57aee" target="5a4dca6b-e79f-47f9-872e-8ed4108fc764" edge="1">
          <mxGeometry relative="1" as="geometry" />
        </mxCell>
        <mxCell id="72f387ff-c458-4c5d-add7-86240667b5cb" value="assignee" style="rounded=0;orthogonalLoop=1;jettySize=1;html=1" parent="1" source="70c8e6b3-8a09-471d-b09e-3dd6e1f4d8f8" target="ac9137da-f9d0-4320-90c2-89eddbb57aee" edge="1">
          <mxGeometry relative="1" as="geometry" />
        </mxCell>
        <mxCell id="3429855d-169a-4452-bc4d-58612dedb6d3" value="realAssignee" style="rounded=0;orthogonalLoop=1;jettySize=1;html=1" parent="1" source="70c8e6b3-8a09-471d-b09e-3dd6e1f4d8f8" target="ac9137da-f9d0-4320-90c2-89eddbb57aee" edge="1">
          <mxGeometry relative="1" as="geometry" />
        </mxCell>
        <mxCell id="25346659-b7f8-49e6-b8cc-5f71c1d255ae" value="author" style="rounded=0;orthogonalLoop=1;jettySize=1;html=1" parent="1" source="bf513645-bc84-4a32-8962-55fdaf1c9531" target="ac9137da-f9d0-4320-90c2-89eddbb57aee" edge="1">
          <mxGeometry relative="1" as="geometry" />
        </mxCell>
        <mxCell id="f7cb29ec-26b1-421f-b9a5-58346b8087b9" value="updateAuthor" style="rounded=0;orthogonalLoop=1;jettySize=1;html=1" parent="1" source="bf513645-bc84-4a32-8962-55fdaf1c9531" target="ac9137da-f9d0-4320-90c2-89eddbb57aee" edge="1">
          <mxGeometry relative="1" as="geometry" />
        </mxCell>
        <mxCell id="2c4eb0b7-78e4-40f9-8d92-8a52cf29a15b" value="lead" style="rounded=0;orthogonalLoop=1;jettySize=1;html=1" parent="1" source="46dae3c3-20b9-4e18-a771-b41b9f741ee4" target="ac9137da-f9d0-4320-90c2-89eddbb57aee" edge="1">
          <mxGeometry relative="1" as="geometry" />
        </mxCell>
        <mxCell id="f4eff43e-b0a0-4b44-ab71-5c0683482573" value="author" style="rounded=0;orthogonalLoop=1;jettySize=1;html=1" parent="1" source="204c40d3-d378-4815-9a5f-e984a5c2085c" target="ac9137da-f9d0-4320-90c2-89eddbb57aee" edge="1">
          <mxGeometry relative="1" as="geometry" />
        </mxCell>
        <mxCell id="27a34a9e-cc3d-4dc5-9df6-bad6699e5087" style="edgeStyle=orthogonalEdgeStyle;rounded=0;orthogonalLoop=1;jettySize=auto;html=1;endArrow=block;endFill=0" parent="1" source="e500880d-a321-4b03-8f36-3e3b0cea0501" target="ac9137da-f9d0-4320-90c2-89eddbb57aee" edge="1">
          <mxGeometry relative="1" as="geometry" />
        </mxCell>
        <object label="IdentifiableEntity" link="references/eClassifiers/IdentifiableEntity/index.html" id="2f27f6af-8620-4017-8596-9bc22874664d">
          <mxCell parent="1" vertex="1">
            <mxGeometry x="1007.151936352379" y="1082.8867724998827" width="120" height="30" as="geometry" />
          </mxCell>
        </object>
        <mxCell id="00ea9be5-4bfd-4fb4-b5ab-b4a548e85d31" style="edgeStyle=orthogonalEdgeStyle;rounded=0;orthogonalLoop=1;jettySize=auto;html=1;endArrow=block;endFill=0" parent="1" source="21364e90-d412-4394-8a49-de275ca6222c" target="2f27f6af-8620-4017-8596-9bc22874664d" edge="1">
          <mxGeometry relative="1" as="geometry">
            <Array as="points">
              <mxPoint x="990" y="980" />
              <mxPoint x="1067" y="980" />
            </Array>
          </mxGeometry>
        </mxCell>
        <mxCell id="04c556e9-0ca9-45c3-b558-5ac17c1ea353" style="edgeStyle=orthogonalEdgeStyle;rounded=0;orthogonalLoop=1;jettySize=auto;html=1;endArrow=block;endFill=0" parent="1" source="2388a42d-6c62-40ba-9dbe-8229680f8481" target="2f27f6af-8620-4017-8596-9bc22874664d" edge="1">
          <mxGeometry relative="1" as="geometry" />
        </mxCell>
        <mxCell id="ed799c29-b979-4338-a6ad-a75bb2ce871c" style="edgeStyle=orthogonalEdgeStyle;rounded=0;orthogonalLoop=1;jettySize=auto;html=1;endArrow=block;endFill=0" parent="1" source="35a49d7a-69f1-4bbd-825a-1f5be5a17f34" target="2f27f6af-8620-4017-8596-9bc22874664d" edge="1">
          <mxGeometry relative="1" as="geometry" />
        </mxCell>
        <object label="Jira" link="references/eClassifiers/Jira/index.html" id="c2f42d7b-7d34-4034-a6ea-f80f4aeefde7">
          <mxCell parent="1" vertex="1">
            <mxGeometry x="1245.7306804537338" y="779.9953351270871" width="120" height="30" as="geometry" />
          </mxCell>
        </object>
        <mxCell id="1d3861da-96b1-44a3-9758-056023d9f124" value="projects" style="rounded=0;orthogonalLoop=1;jettySize=1;html=1;startArrow=diamondThin;startFill=1" parent="1" source="c2f42d7b-7d34-4034-a6ea-f80f4aeefde7" target="94e793c8-9347-4b83-b940-283ab50a7fae" edge="1">
          <mxGeometry relative="1" as="geometry" />
        </mxCell>
        <mxCell id="3b03a3c7-0428-4776-b070-9e7dd13e0e3b" value="groups" style="rounded=0;orthogonalLoop=1;jettySize=1;html=1;startArrow=diamondThin;startFill=1" parent="1" source="c2f42d7b-7d34-4034-a6ea-f80f4aeefde7" target="b0cbb9b0-f553-4289-8bf5-059637a2cac3" edge="1">
          <mxGeometry relative="1" as="geometry" />
        </mxCell>
        <object label="User" link="references/eClassifiers/User/index.html" id="f342462b-ff01-48d6-8422-3c0966139d19">
          <mxCell parent="1" vertex="1">
            <mxGeometry x="1620.000900799197" y="904.8651756295257" width="120" height="30" as="geometry" />
          </mxCell>
        </object>
        <mxCell id="55e77ab0-74f3-4e5e-aa27-4168f2a4f093" style="edgeStyle=orthogonalEdgeStyle;rounded=0;orthogonalLoop=1;jettySize=auto;html=1;endArrow=block;endFill=0" parent="1" source="f342462b-ff01-48d6-8422-3c0966139d19" target="29e748d2-127b-461f-84f8-18eb52ee1a63" edge="1">
          <mxGeometry relative="1" as="geometry">
            <Array as="points">
              <mxPoint x="1680" y="883.85" />
              <mxPoint x="1777" y="883.85" />
            </Array>
          </mxGeometry>
        </mxCell>
        <mxCell id="a8fc0bf9-97bb-4000-8505-3c9a6353722d" value="groups" style="rounded=0;orthogonalLoop=1;jettySize=1;html=1;startArrow=diamondThin;startFill=1" parent="1" source="f342462b-ff01-48d6-8422-3c0966139d19" target="b0cbb9b0-f553-4289-8bf5-059637a2cac3" edge="1">
          <mxGeometry relative="1" as="geometry" />
        </mxCell>
        <mxCell id="1b38ab69-4209-42e2-9736-c89eae910671" style="edgeStyle=orthogonalEdgeStyle;rounded=0;orthogonalLoop=1;jettySize=auto;html=1;endArrow=block;endFill=0" parent="1" source="f342462b-ff01-48d6-8422-3c0966139d19" target="ac9137da-f9d0-4320-90c2-89eddbb57aee" edge="1">
          <mxGeometry relative="1" as="geometry" />
        </mxCell>
        <mxCell id="29c7da91-8033-4b29-96e2-0e9428db2ab2" value="users" style="rounded=0;orthogonalLoop=1;jettySize=1;html=1;startArrow=diamondThin;startFill=1" parent="1" source="c2f42d7b-7d34-4034-a6ea-f80f4aeefde7" target="f342462b-ff01-48d6-8422-3c0966139d19" edge="1">
          <mxGeometry relative="1" as="geometry" />
        </mxCell>
        <mxCell id="ce61683d-a9ee-4511-a71e-5db69a43a7d1" value="assignee" style="rounded=0;orthogonalLoop=1;jettySize=1;html=1" parent="1" source="d3357369-3d58-493a-bbab-b021bac1352e" target="f342462b-ff01-48d6-8422-3c0966139d19" edge="1">
          <mxGeometry relative="1" as="geometry" />
        </mxCell>
        <mxCell id="6982f5fc-64f1-4331-a331-5af3eeec5bda" value="reporter" style="rounded=0;orthogonalLoop=1;jettySize=1;html=1" parent="1" source="d3357369-3d58-493a-bbab-b021bac1352e" target="f342462b-ff01-48d6-8422-3c0966139d19" edge="1">
          <mxGeometry relative="1" as="geometry" />
        </mxCell>
        <object label="ChangelogItem" link="references/eClassifiers/ChangelogItem/index.html" id="c952c2a8-f299-4e5e-9a15-f5b11db8028f">
          <mxCell parent="1" vertex="1">
            <mxGeometry x="1478.1483912016392" y="250.92" width="120" height="30" as="geometry" />
          </mxCell>
        </object>
        <object label="ChangelogGroup" link="references/eClassifiers/ChangelogGroup/index.html" id="3baba01c-9e03-425c-876b-74f3f65a0055">
          <mxCell parent="1" vertex="1">
            <mxGeometry x="1478.1485463938027" y="321.75243216038524" width="120" height="30" as="geometry" />
          </mxCell>
        </object>
        <mxCell id="1e4c9fc1-fff6-43d0-9379-bcba049fc323" value="items" style="rounded=0;orthogonalLoop=1;jettySize=1;html=1;startArrow=diamondThin;startFill=1" parent="1" source="3baba01c-9e03-425c-876b-74f3f65a0055" target="c952c2a8-f299-4e5e-9a15-f5b11db8028f" edge="1">
          <mxGeometry relative="1" as="geometry" />
        </mxCell>
        <mxCell id="d11b468f-829a-474d-bbb2-ec9cbbd915fe" value="author" style="rounded=0;orthogonalLoop=1;jettySize=1;html=1" parent="1" source="3baba01c-9e03-425c-876b-74f3f65a0055" target="ac9137da-f9d0-4320-90c2-89eddbb57aee" edge="1">
          <mxGeometry relative="1" as="geometry" />
        </mxCell>
        <mxCell id="58c80ff1-948e-492e-a73a-315f7a859657" value="changelog" style="rounded=0;orthogonalLoop=1;jettySize=1;html=1;startArrow=diamondThin;startFill=1" parent="1" source="d3357369-3d58-493a-bbab-b021bac1352e" target="3baba01c-9e03-425c-876b-74f3f65a0055" edge="1">
          <mxGeometry relative="1" as="geometry" />
        </mxCell>
        <object label="RoleActor" link="references/eClassifiers/RoleActor/index.html" id="df9558d8-8e1e-4a35-8f69-bb31e2d6145a">
          <mxCell parent="1" vertex="1">
            <mxGeometry x="906.418211057265" y="1166.51" width="120" height="30" as="geometry" />
          </mxCell>
        </object>
        <mxCell id="2bf1c08b-5da1-4f6d-9cbb-c0bbfcafd317" style="edgeStyle=orthogonalEdgeStyle;rounded=0;orthogonalLoop=1;jettySize=auto;html=1;endArrow=block;endFill=0" parent="1" source="df9558d8-8e1e-4a35-8f69-bb31e2d6145a" target="2f27f6af-8620-4017-8596-9bc22874664d" edge="1">
          <mxGeometry relative="1" as="geometry" />
        </mxCell>
        <object label="BasicProjectRole" link="references/eClassifiers/BasicProjectRole/index.html" id="459ba1c9-fdd0-4330-9ff0-b6c9410ade65">
          <mxCell parent="1" vertex="1">
            <mxGeometry x="736.1453986809045" y="359.99715996619204" width="120" height="30" as="geometry" />
          </mxCell>
        </object>
        <mxCell id="f46a68bc-bf06-46a9-9e5f-e7d82d81916c" style="edgeStyle=orthogonalEdgeStyle;rounded=0;orthogonalLoop=1;jettySize=auto;html=1;endArrow=block;endFill=0" parent="1" source="459ba1c9-fdd0-4330-9ff0-b6c9410ade65" target="5a4dca6b-e79f-47f9-872e-8ed4108fc764" edge="1">
          <mxGeometry relative="1" as="geometry" />
        </mxCell>
        <mxCell id="80d42f28-b815-4c6c-9d36-8e578ac87030" value="projectRoles" style="rounded=0;orthogonalLoop=1;jettySize=1;html=1;startArrow=diamondThin;startFill=1" parent="1" source="46dae3c3-20b9-4e18-a771-b41b9f741ee4" target="459ba1c9-fdd0-4330-9ff0-b6c9410ade65" edge="1">
          <mxGeometry relative="1" as="geometry" />
        </mxCell>
        <mxCell id="a81f83e1-4e0c-4c9e-bc32-b9d636e57325" value="roles" style="rounded=0;orthogonalLoop=1;jettySize=1;html=1;startArrow=diamondThin;startFill=1" parent="1" source="46dae3c3-20b9-4e18-a771-b41b9f741ee4" target="459ba1c9-fdd0-4330-9ff0-b6c9410ade65" edge="1">
          <mxGeometry relative="1" as="geometry" />
        </mxCell>
        <object label="Subtask" link="references/eClassifiers/Subtask/index.html" id="77a09a4f-058a-4531-b618-62cc8afa505f">
          <mxCell parent="1" vertex="1">
            <mxGeometry x="817.5100861901683" y="501.8977742906301" width="120" height="30" as="geometry" />
          </mxCell>
        </object>
        <mxCell id="4b90cd06-c58f-4137-a26c-232b77a78f66" value="status" style="rounded=0;orthogonalLoop=1;jettySize=1;html=1" parent="1" source="77a09a4f-058a-4531-b618-62cc8afa505f" target="06c1c33a-e992-4390-a503-d95d9cc7042f" edge="1">
          <mxGeometry relative="1" as="geometry" />
        </mxCell>
        <mxCell id="35008119-160c-49fd-b4b0-1435bf53b723" value="issueType" style="rounded=0;orthogonalLoop=1;jettySize=1;html=1" parent="1" source="77a09a4f-058a-4531-b618-62cc8afa505f" target="d6c39a25-1cd8-453e-aa7c-81c1b86080bd" edge="1">
          <mxGeometry relative="1" as="geometry" />
        </mxCell>
        <mxCell id="fcdb81dc-6ada-4c3e-b856-89b12dc3d6f9" value="subtasks" style="rounded=0;orthogonalLoop=1;jettySize=1;html=1;startArrow=diamondThin;startFill=1" parent="1" source="d3357369-3d58-493a-bbab-b021bac1352e" target="77a09a4f-058a-4531-b618-62cc8afa505f" edge="1">
          <mxGeometry relative="1" as="geometry" />
        </mxCell>
        <object label="Operations" link="references/eClassifiers/Operations/index.html" id="8067b00c-0621-4680-946c-fb8dd3c0c854">
          <mxCell parent="1" vertex="1">
            <mxGeometry x="1040.004779232263" y="260.00434079867466" width="120" height="30" as="geometry" />
          </mxCell>
        </object>
        <mxCell id="a7bd7876-ffac-4f19-82b6-8c6166f8e0c0" value="operations" style="rounded=0;orthogonalLoop=1;jettySize=1;html=1" parent="1" source="d3357369-3d58-493a-bbab-b021bac1352e" target="8067b00c-0621-4680-946c-fb8dd3c0c854" edge="1">
          <mxGeometry relative="1" as="geometry" />
        </mxCell>
        <object label="BasicPriority" link="references/eClassifiers/BasicPriority/index.html" id="dda27173-404e-4c03-8728-d005bc4bf6fd">
          <mxCell parent="1" vertex="1">
            <mxGeometry x="730.7471297092882" y="634.1765869398444" width="120" height="30" as="geometry" />
          </mxCell>
        </object>
        <mxCell id="64c2c60d-f6b3-4069-863d-de9672943c96" style="edgeStyle=orthogonalEdgeStyle;rounded=0;orthogonalLoop=1;jettySize=auto;html=1;endArrow=block;endFill=0" parent="1" source="dda27173-404e-4c03-8728-d005bc4bf6fd" target="35a49d7a-69f1-4bbd-825a-1f5be5a17f34" edge="1">
          <mxGeometry relative="1" as="geometry" />
        </mxCell>
        <mxCell id="968a67d2-426f-43c7-a945-6548f55fcf8a" value="priority" style="rounded=0;orthogonalLoop=1;jettySize=1;html=1" parent="1" source="d3357369-3d58-493a-bbab-b021bac1352e" target="dda27173-404e-4c03-8728-d005bc4bf6fd" edge="1">
          <mxGeometry relative="1" as="geometry" />
        </mxCell>
        <object label="Worklog" link="references/eClassifiers/Worklog/index.html" id="d1d080bc-b937-4061-a0af-0a2ce1e051b1">
          <mxCell parent="1" vertex="1">
            <mxGeometry x="1520.054503909471" y="519.6399996337104" width="120" height="30" as="geometry" />
          </mxCell>
        </object>
        <mxCell id="07af898d-dcdb-4839-a271-2a76987bacca" value="author" style="rounded=0;orthogonalLoop=1;jettySize=1;html=1" parent="1" source="d1d080bc-b937-4061-a0af-0a2ce1e051b1" target="ac9137da-f9d0-4320-90c2-89eddbb57aee" edge="1">
          <mxGeometry relative="1" as="geometry" />
        </mxCell>
        <mxCell id="f705841f-4245-4aca-9a96-01a7be6d9e0b" value="updateAuthor" style="rounded=0;orthogonalLoop=1;jettySize=1;html=1" parent="1" source="d1d080bc-b937-4061-a0af-0a2ce1e051b1" target="ac9137da-f9d0-4320-90c2-89eddbb57aee" edge="1">
          <mxGeometry relative="1" as="geometry" />
        </mxCell>
        <mxCell id="7ff574ef-4b26-46d5-a245-d5dd40c278dc" value="worklogs" style="rounded=0;orthogonalLoop=1;jettySize=1;html=1;startArrow=diamondThin;startFill=1" parent="1" source="d3357369-3d58-493a-bbab-b021bac1352e" target="d1d080bc-b937-4061-a0af-0a2ce1e051b1" edge="1">
          <mxGeometry relative="1" as="geometry" />
        </mxCell>
        <object label="AddressableEntity" link="references/eClassifiers/AddressableEntity/index.html" id="ca347e09-dab7-4806-a633-b85fea297882">
          <mxCell parent="1" vertex="1">
            <mxGeometry x="1314.2255135976618" y="668.2220647767614" width="120" height="30" as="geometry" />
          </mxCell>
        </object>
        <mxCell id="270b88d7-9a15-4f31-af04-3f4eac36e677" style="edgeStyle=orthogonalEdgeStyle;rounded=0;orthogonalLoop=1;jettySize=auto;html=1;endArrow=block;endFill=0" parent="1" source="d1d080bc-b937-4061-a0af-0a2ce1e051b1" target="ca347e09-dab7-4806-a633-b85fea297882" edge="1">
          <mxGeometry relative="1" as="geometry" />
        </mxCell>
        <mxCell id="42fb4984-df56-45c4-93e8-1af4d77418ef" style="edgeStyle=orthogonalEdgeStyle;rounded=0;orthogonalLoop=1;jettySize=auto;html=1;endArrow=block;endFill=0" parent="1" source="2388a42d-6c62-40ba-9dbe-8229680f8481" target="ca347e09-dab7-4806-a633-b85fea297882" edge="1">
          <mxGeometry relative="1" as="geometry" />
        </mxCell>
        <mxCell id="cee556c8-be5d-48a6-b9a5-f70f4520e3e6" style="edgeStyle=orthogonalEdgeStyle;rounded=0;orthogonalLoop=1;jettySize=auto;html=1;endArrow=block;endFill=0" parent="1" source="bd34a6dd-be01-4615-a138-f2748f9fdd7f" target="ca347e09-dab7-4806-a633-b85fea297882" edge="1">
          <mxGeometry relative="1" as="geometry" />
        </mxCell>
        <mxCell id="9b555aa1-b3b4-456a-b01f-460c56d4fb5a" style="edgeStyle=orthogonalEdgeStyle;rounded=0;orthogonalLoop=1;jettySize=auto;html=1;endArrow=block;endFill=0" parent="1" source="5a4dca6b-e79f-47f9-872e-8ed4108fc764" target="ca347e09-dab7-4806-a633-b85fea297882" edge="1">
          <mxGeometry relative="1" as="geometry" />
        </mxCell>
        <mxCell id="2f914e65-2541-4198-9677-22c8d3842d1f" style="edgeStyle=orthogonalEdgeStyle;rounded=0;orthogonalLoop=1;jettySize=auto;html=1;endArrow=block;endFill=0" parent="1" source="204c40d3-d378-4815-9a5f-e984a5c2085c" target="ca347e09-dab7-4806-a633-b85fea297882" edge="1">
          <mxGeometry relative="1" as="geometry" />
        </mxCell>
        <object label="TimeTracking" link="references/eClassifiers/TimeTracking/index.html" id="38f921ac-2aa8-4f2b-ba47-be623aad6c2e">
          <mxCell parent="1" vertex="1">
            <mxGeometry x="786.4181146021424" y="260.00477671287365" width="120" height="30" as="geometry" />
          </mxCell>
        </object>
        <mxCell id="616f759f-89eb-469c-98f3-79468c127704" value="timeTracking" style="rounded=0;orthogonalLoop=1;jettySize=1;html=1" parent="1" source="d3357369-3d58-493a-bbab-b021bac1352e" target="38f921ac-2aa8-4f2b-ba47-be623aad6c2e" edge="1">
          <mxGeometry relative="1" as="geometry" />
        </mxCell>
        <object label="ProjectRole" link="references/eClassifiers/ProjectRole/index.html" id="7b0c2774-48e0-43ad-8827-3bba1bd215e1">
          <mxCell parent="1" vertex="1">
            <mxGeometry x="1007.1503777634737" y="1250" width="120" height="30" as="geometry" />
          </mxCell>
        </object>
        <mxCell id="b523d832-7f4e-4c34-880a-3399d5ee666b" style="edgeStyle=orthogonalEdgeStyle;rounded=0;orthogonalLoop=1;jettySize=auto;html=1;endArrow=block;endFill=0" parent="1" source="7b0c2774-48e0-43ad-8827-3bba1bd215e1" target="459ba1c9-fdd0-4330-9ff0-b6c9410ade65" edge="1">
          <mxGeometry relative="1" as="geometry" />
        </mxCell>
        <mxCell id="554aa181-b3fe-4cd4-a59d-ea94d3b52e1b" value="actors" style="rounded=0;orthogonalLoop=1;jettySize=1;html=1;startArrow=diamondThin;startFill=1" parent="1" source="7b0c2774-48e0-43ad-8827-3bba1bd215e1" target="df9558d8-8e1e-4a35-8f69-bb31e2d6145a" edge="1">
          <mxGeometry relative="1" as="geometry" />
        </mxCell>
        <mxCell id="a1aeee16-2073-4dc2-bb02-09af2df25b84" style="edgeStyle=orthogonalEdgeStyle;rounded=0;orthogonalLoop=1;jettySize=auto;html=1;endArrow=block;endFill=0" parent="1" source="7b0c2774-48e0-43ad-8827-3bba1bd215e1" target="2f27f6af-8620-4017-8596-9bc22874664d" edge="1">
          <mxGeometry relative="1" as="geometry" />
        </mxCell>
        <object label="BasicVotes" link="references/eClassifiers/BasicVotes/index.html" id="21080b55-8565-4f5c-beb0-15e30c37bccd">
          <mxCell parent="1" vertex="1">
            <mxGeometry x="1138.784312123163" y="406.8795782998088" width="120" height="30" as="geometry" />
          </mxCell>
        </object>
        <mxCell id="a76fb1d9-a3f1-4029-9926-48fc016110cb" style="edgeStyle=orthogonalEdgeStyle;rounded=0;orthogonalLoop=1;jettySize=auto;html=1;endArrow=block;endFill=0" parent="1" source="21080b55-8565-4f5c-beb0-15e30c37bccd" target="ca347e09-dab7-4806-a633-b85fea297882" edge="1">
          <mxGeometry relative="1" as="geometry" />
        </mxCell>
        <mxCell id="7b75972f-98c3-4dcc-8c5d-ee74f37f9227" value="votes" style="rounded=0;orthogonalLoop=1;jettySize=1;html=1" parent="1" source="d3357369-3d58-493a-bbab-b021bac1352e" target="21080b55-8565-4f5c-beb0-15e30c37bccd" edge="1">
          <mxGeometry relative="1" as="geometry" />
        </mxCell>
        <object label="StatusCategory" link="references/eClassifiers/StatusCategory/index.html" id="4a62cc4c-c000-47e2-aad6-ad816de75157">
          <mxCell parent="1" vertex="1">
            <mxGeometry x="792.9819082367193" y="818.1916293303667" width="120" height="30" as="geometry" />
          </mxCell>
        </object>
        <mxCell id="9727941b-1efc-427e-b3b6-77330bc13de5" style="edgeStyle=orthogonalEdgeStyle;rounded=0;orthogonalLoop=1;jettySize=auto;html=1;endArrow=block;endFill=0" parent="1" source="4a62cc4c-c000-47e2-aad6-ad816de75157" target="35a49d7a-69f1-4bbd-825a-1f5be5a17f34" edge="1">
          <mxGeometry relative="1" as="geometry" />
        </mxCell>
        <mxCell id="9b2d9d41-a8a0-4b53-a4a7-b1e45ac2c8aa" value="value" style="rounded=0;orthogonalLoop=1;jettySize=1;html=1" parent="1" source="06c1c33a-e992-4390-a503-d95d9cc7042f" target="4a62cc4c-c000-47e2-aad6-ad816de75157" edge="1">
          <mxGeometry relative="1" as="geometry" />
        </mxCell>
        <mxCell id="3671d2f9-6158-4b70-910e-c4f10cc8deb2" value="statusCategories" style="rounded=0;orthogonalLoop=1;jettySize=1;html=1;startArrow=diamondThin;startFill=1" parent="1" source="46dae3c3-20b9-4e18-a771-b41b9f741ee4" target="4a62cc4c-c000-47e2-aad6-ad816de75157" edge="1">
          <mxGeometry relative="1" as="geometry" />
        </mxCell>
        <object label="Visibility" link="references/eClassifiers/Visibility/index.html" id="e841b9dc-4e76-4bb0-bba3-ad97d7351ab2">
          <mxCell parent="1" vertex="1">
            <mxGeometry x="1709.99262873569" y="501.8971084169075" width="120" height="30" as="geometry" />
          </mxCell>
        </object>
        <mxCell id="6fcdca97-7220-4914-8cba-0d3ba51df3ba" value="visibility" style="rounded=0;orthogonalLoop=1;jettySize=1;html=1" parent="1" source="d1d080bc-b937-4061-a0af-0a2ce1e051b1" target="e841b9dc-4e76-4bb0-bba3-ad97d7351ab2" edge="1">
          <mxGeometry relative="1" as="geometry" />
        </mxCell>
        <mxCell id="d419ff41-878a-4dd9-bc07-59cb6fa6fe78" value="visibility" style="rounded=0;orthogonalLoop=1;jettySize=1;html=1" parent="1" source="bf513645-bc84-4a32-8962-55fdaf1c9531" target="e841b9dc-4e76-4bb0-bba3-ad97d7351ab2" edge="1">
          <mxGeometry relative="1" as="geometry" />
        </mxCell>
        <object label="ProjectReference" link="references/eClassifiers/ProjectReference/index.html" id="645d7f35-1466-4b66-b957-8eec7230864c">
          <mxCell parent="1" vertex="1">
            <mxGeometry x="856.1481631551098" y="934.8603680494698" width="120" height="30" as="geometry" />
          </mxCell>
        </object>
        <mxCell id="aa7ac93e-8708-48cf-9137-a3d3142ba7c6" style="edgeStyle=orthogonalEdgeStyle;rounded=0;orthogonalLoop=1;jettySize=auto;html=1;endArrow=block;endFill=0" parent="1" source="645d7f35-1466-4b66-b957-8eec7230864c" target="94e793c8-9347-4b83-b940-283ab50a7fae" edge="1">
          <mxGeometry relative="1" as="geometry" />
        </mxCell>
        <object label="NamedEntity" link="references/eClassifiers/NamedEntity/index.html" id="6fee2afd-755e-4a82-8b33-63efc3add967">
          <mxCell parent="1" vertex="1">
            <mxGeometry x="820.0050605244398" y="1082.8864298695917" width="120" height="30" as="geometry" />
          </mxCell>
        </object>
        <mxCell id="9be999b4-e7ae-47c7-91cb-b569300e44fa" style="edgeStyle=orthogonalEdgeStyle;rounded=0;orthogonalLoop=1;jettySize=auto;html=1;endArrow=block;endFill=0" parent="1" source="df9558d8-8e1e-4a35-8f69-bb31e2d6145a" target="6fee2afd-755e-4a82-8b33-63efc3add967" edge="1">
          <mxGeometry relative="1" as="geometry" />
        </mxCell>
        <mxCell id="ce96a323-cb4a-42a5-a28c-ddf30008f84b" style="edgeStyle=orthogonalEdgeStyle;rounded=0;orthogonalLoop=1;jettySize=auto;html=1;endArrow=block;endFill=0" parent="1" source="21364e90-d412-4394-8a49-de275ca6222c" target="6fee2afd-755e-4a82-8b33-63efc3add967" edge="1">
          <mxGeometry relative="1" as="geometry">
            <Array as="points">
              <mxPoint x="990" y="980" />
              <mxPoint x="880" y="980" />
            </Array>
          </mxGeometry>
        </mxCell>
        <mxCell id="16dedf83-94a2-4d3d-822a-a7aaab84088f" style="edgeStyle=orthogonalEdgeStyle;rounded=0;orthogonalLoop=1;jettySize=auto;html=1;endArrow=block;endFill=0" parent="1" source="5a4dca6b-e79f-47f9-872e-8ed4108fc764" target="6fee2afd-755e-4a82-8b33-63efc3add967" edge="1">
          <mxGeometry relative="1" as="geometry" />
        </mxCell>
      </root>
    </mxGraphModel>
  </diagram>
</mxfile>
